<mxfile host="Electron" agent="Mozilla/5.0 (Windows NT 10.0; Win64; x64) AppleWebKit/537.36 (KHTML, like Gecko) draw.io/28.2.5 Chrome/138.0.7204.251 Electron/37.6.1 Safari/537.36" version="28.2.5">
  <diagram name="Strona-1" id="0ytdIU9-wOsDYnunC2FG">
    <mxGraphModel dx="1181" dy="686" grid="1" gridSize="10" guides="1" tooltips="1" connect="1" arrows="1" fold="1" page="1" pageScale="1" pageWidth="827" pageHeight="1169" math="0" shadow="0">
      <root>
        <mxCell id="0" />
        <mxCell id="1" parent="0" />
        <mxCell id="Gcy2Zyg5mzAC8_1Rug9N-21" value="" style="group" parent="1" vertex="1" connectable="0">
          <mxGeometry x="348.75" y="249" width="394.85" height="351" as="geometry" />
        </mxCell>
        <mxCell id="Gcy2Zyg5mzAC8_1Rug9N-38" value="" style="rounded=0;whiteSpace=wrap;html=1;fillColor=none;" parent="Gcy2Zyg5mzAC8_1Rug9N-21" vertex="1">
          <mxGeometry x="-268.75" y="-159" width="640" height="459" as="geometry" />
        </mxCell>
        <mxCell id="Gcy2Zyg5mzAC8_1Rug9N-2" value="" style="outlineConnect=0;dashed=0;verticalLabelPosition=bottom;verticalAlign=top;align=center;html=1;shape=mxgraph.aws3.topic;fillColor=#5294CF;gradientColor=none;" parent="Gcy2Zyg5mzAC8_1Rug9N-21" vertex="1">
          <mxGeometry x="15.25" width="49.5" height="66" as="geometry" />
        </mxCell>
        <mxCell id="MYxLFwQDuy4Y0nCW0piG-1" value="Docker Compose" style="text;html=1;align=center;verticalAlign=middle;resizable=0;points=[];autosize=1;strokeColor=none;fillColor=none;" vertex="1" parent="Gcy2Zyg5mzAC8_1Rug9N-21">
          <mxGeometry x="226.25" y="-99" width="120" height="30" as="geometry" />
        </mxCell>
        <mxCell id="Gcy2Zyg5mzAC8_1Rug9N-1" value="" style="points=[];aspect=fixed;html=1;align=center;shadow=0;dashed=0;fillColor=#FF6A00;strokeColor=none;shape=mxgraph.alibaba_cloud.kafka;" parent="Gcy2Zyg5mzAC8_1Rug9N-21" vertex="1">
          <mxGeometry x="11.649999999999977" y="129" width="56.699999999999996" height="42" as="geometry" />
        </mxCell>
        <mxCell id="Gcy2Zyg5mzAC8_1Rug9N-28" value="Kafka" style="text;html=1;align=center;verticalAlign=middle;resizable=0;points=[];autosize=1;strokeColor=none;fillColor=none;" parent="Gcy2Zyg5mzAC8_1Rug9N-21" vertex="1">
          <mxGeometry x="18.600000000000023" y="170.99999999999997" width="50" height="30" as="geometry" />
        </mxCell>
        <mxCell id="Gcy2Zyg5mzAC8_1Rug9N-6" value="" style="endArrow=none;html=1;rounded=0;" parent="Gcy2Zyg5mzAC8_1Rug9N-21" source="Gcy2Zyg5mzAC8_1Rug9N-1" target="Gcy2Zyg5mzAC8_1Rug9N-2" edge="1">
          <mxGeometry width="50" height="50" relative="1" as="geometry">
            <mxPoint x="31.25" y="190" as="sourcePoint" />
            <mxPoint x="41.25" y="71" as="targetPoint" />
          </mxGeometry>
        </mxCell>
        <mxCell id="Gcy2Zyg5mzAC8_1Rug9N-15" style="edgeStyle=orthogonalEdgeStyle;rounded=0;orthogonalLoop=1;jettySize=auto;html=1;" parent="1" source="Gcy2Zyg5mzAC8_1Rug9N-2" target="Gcy2Zyg5mzAC8_1Rug9N-14" edge="1">
          <mxGeometry relative="1" as="geometry" />
        </mxCell>
        <mxCell id="Gcy2Zyg5mzAC8_1Rug9N-3" value="" style="image;sketch=0;aspect=fixed;html=1;points=[];align=center;fontSize=12;image=img/lib/mscae/Docker.svg;" parent="1" vertex="1">
          <mxGeometry x="100" y="40" width="50" height="41" as="geometry" />
        </mxCell>
        <mxCell id="Gcy2Zyg5mzAC8_1Rug9N-10" style="edgeStyle=orthogonalEdgeStyle;rounded=0;orthogonalLoop=1;jettySize=auto;html=1;entryX=1;entryY=0.14;entryDx=0;entryDy=0;entryPerimeter=0;" parent="1" source="Gcy2Zyg5mzAC8_1Rug9N-7" target="Gcy2Zyg5mzAC8_1Rug9N-2" edge="1">
          <mxGeometry relative="1" as="geometry" />
        </mxCell>
        <mxCell id="Gcy2Zyg5mzAC8_1Rug9N-11" style="edgeStyle=orthogonalEdgeStyle;rounded=0;orthogonalLoop=1;jettySize=auto;html=1;entryX=1;entryY=0.5;entryDx=0;entryDy=0;entryPerimeter=0;" parent="1" source="Gcy2Zyg5mzAC8_1Rug9N-8" target="Gcy2Zyg5mzAC8_1Rug9N-2" edge="1">
          <mxGeometry relative="1" as="geometry" />
        </mxCell>
        <mxCell id="Gcy2Zyg5mzAC8_1Rug9N-12" style="edgeStyle=orthogonalEdgeStyle;rounded=0;orthogonalLoop=1;jettySize=auto;html=1;entryX=1;entryY=0.91;entryDx=0;entryDy=0;entryPerimeter=0;" parent="1" source="Gcy2Zyg5mzAC8_1Rug9N-9" target="Gcy2Zyg5mzAC8_1Rug9N-2" edge="1">
          <mxGeometry relative="1" as="geometry" />
        </mxCell>
        <mxCell id="Gcy2Zyg5mzAC8_1Rug9N-18" style="edgeStyle=orthogonalEdgeStyle;rounded=0;orthogonalLoop=1;jettySize=auto;html=1;" parent="1" source="Gcy2Zyg5mzAC8_1Rug9N-14" target="Gcy2Zyg5mzAC8_1Rug9N-13" edge="1">
          <mxGeometry relative="1" as="geometry" />
        </mxCell>
        <mxCell id="Gcy2Zyg5mzAC8_1Rug9N-25" value="" style="group" parent="1" vertex="1" connectable="0">
          <mxGeometry x="178.4" y="429" width="79.99999999999997" height="77.39999999999998" as="geometry" />
        </mxCell>
        <mxCell id="Gcy2Zyg5mzAC8_1Rug9N-13" value="" style="points=[];aspect=fixed;html=1;align=center;shadow=0;dashed=0;fillColor=#FF6A00;strokeColor=none;shape=mxgraph.alibaba_cloud.mongodb;" parent="Gcy2Zyg5mzAC8_1Rug9N-25" vertex="1">
          <mxGeometry x="16.299999999999983" width="47.400000000000006" height="47.400000000000006" as="geometry" />
        </mxCell>
        <mxCell id="Gcy2Zyg5mzAC8_1Rug9N-22" value="MongoDB" style="text;html=1;align=center;verticalAlign=middle;resizable=0;points=[];autosize=1;strokeColor=none;fillColor=none;" parent="Gcy2Zyg5mzAC8_1Rug9N-25" vertex="1">
          <mxGeometry y="47.39999999999998" width="80" height="30" as="geometry" />
        </mxCell>
        <mxCell id="Gcy2Zyg5mzAC8_1Rug9N-27" value="" style="group" parent="1" vertex="1" connectable="0">
          <mxGeometry x="118.4" y="200.21" width="199.99999999999997" height="133.56999999999996" as="geometry" />
        </mxCell>
        <mxCell id="Gcy2Zyg5mzAC8_1Rug9N-14" value="" style="image;aspect=fixed;perimeter=ellipsePerimeter;html=1;align=center;shadow=0;dashed=0;spacingTop=3;image=img/lib/active_directory/generic_server.svg;" parent="Gcy2Zyg5mzAC8_1Rug9N-27" vertex="1">
          <mxGeometry x="71" y="30" width="58" height="103.57" as="geometry" />
        </mxCell>
        <mxCell id="Gcy2Zyg5mzAC8_1Rug9N-26" value="Flask server (frontend + backend)" style="text;html=1;align=center;verticalAlign=middle;resizable=0;points=[];autosize=1;strokeColor=none;fillColor=none;" parent="Gcy2Zyg5mzAC8_1Rug9N-27" vertex="1">
          <mxGeometry width="200" height="30" as="geometry" />
        </mxCell>
        <mxCell id="Gcy2Zyg5mzAC8_1Rug9N-30" value="" style="group" parent="1" vertex="1" connectable="0">
          <mxGeometry x="450" y="450" width="85" height="96" as="geometry" />
        </mxCell>
        <mxCell id="Gcy2Zyg5mzAC8_1Rug9N-31" value="" style="outlineConnect=0;dashed=0;verticalLabelPosition=bottom;verticalAlign=top;align=center;html=1;shape=mxgraph.aws3.topic;fillColor=#5294CF;gradientColor=none;" parent="Gcy2Zyg5mzAC8_1Rug9N-30" vertex="1">
          <mxGeometry x="15.25" width="49.5" height="66" as="geometry" />
        </mxCell>
        <mxCell id="Gcy2Zyg5mzAC8_1Rug9N-32" value="Control topic" style="text;html=1;align=center;verticalAlign=middle;resizable=0;points=[];autosize=1;strokeColor=none;fillColor=none;" parent="Gcy2Zyg5mzAC8_1Rug9N-30" vertex="1">
          <mxGeometry x="-5" y="66" width="90" height="30" as="geometry" />
        </mxCell>
        <mxCell id="Gcy2Zyg5mzAC8_1Rug9N-35" value="" style="group" parent="1" vertex="1" connectable="0">
          <mxGeometry x="575" y="179" width="120" height="201" as="geometry" />
        </mxCell>
        <mxCell id="Gcy2Zyg5mzAC8_1Rug9N-7" value="" style="aspect=fixed;sketch=0;html=1;dashed=0;whitespace=wrap;verticalLabelPosition=bottom;verticalAlign=top;fillColor=#2875E2;strokeColor=#ffffff;points=[[0.005,0.63,0],[0.1,0.2,0],[0.9,0.2,0],[0.5,0,0],[0.995,0.63,0],[0.72,0.99,0],[0.5,1,0],[0.28,0.99,0]];shape=mxgraph.kubernetes.icon2;prIcon=pod" parent="Gcy2Zyg5mzAC8_1Rug9N-35" vertex="1">
          <mxGeometry x="35" y="12" width="50" height="48" as="geometry" />
        </mxCell>
        <mxCell id="Gcy2Zyg5mzAC8_1Rug9N-8" value="" style="aspect=fixed;sketch=0;html=1;dashed=0;whitespace=wrap;verticalLabelPosition=bottom;verticalAlign=top;fillColor=#2875E2;strokeColor=#ffffff;points=[[0.005,0.63,0],[0.1,0.2,0],[0.9,0.2,0],[0.5,0,0],[0.995,0.63,0],[0.72,0.99,0],[0.5,1,0],[0.28,0.99,0]];shape=mxgraph.kubernetes.icon2;prIcon=pod" parent="Gcy2Zyg5mzAC8_1Rug9N-35" vertex="1">
          <mxGeometry x="35" y="79" width="50" height="48" as="geometry" />
        </mxCell>
        <mxCell id="Gcy2Zyg5mzAC8_1Rug9N-9" value="" style="aspect=fixed;sketch=0;html=1;dashed=0;whitespace=wrap;verticalLabelPosition=bottom;verticalAlign=top;fillColor=#2875E2;strokeColor=#ffffff;points=[[0.005,0.63,0],[0.1,0.2,0],[0.9,0.2,0],[0.5,0,0],[0.995,0.63,0],[0.72,0.99,0],[0.5,1,0],[0.28,0.99,0]];shape=mxgraph.kubernetes.icon2;prIcon=pod" parent="Gcy2Zyg5mzAC8_1Rug9N-35" vertex="1">
          <mxGeometry x="35" y="136" width="50" height="48" as="geometry" />
        </mxCell>
        <mxCell id="Gcy2Zyg5mzAC8_1Rug9N-33" value="" style="rounded=0;whiteSpace=wrap;html=1;fillColor=none;" parent="Gcy2Zyg5mzAC8_1Rug9N-35" vertex="1">
          <mxGeometry width="120" height="201" as="geometry" />
        </mxCell>
        <mxCell id="Gcy2Zyg5mzAC8_1Rug9N-36" style="edgeStyle=orthogonalEdgeStyle;rounded=0;orthogonalLoop=1;jettySize=auto;html=1;entryX=0.5;entryY=1;entryDx=0;entryDy=0;" parent="1" source="Gcy2Zyg5mzAC8_1Rug9N-31" target="Gcy2Zyg5mzAC8_1Rug9N-33" edge="1">
          <mxGeometry relative="1" as="geometry" />
        </mxCell>
        <mxCell id="Gcy2Zyg5mzAC8_1Rug9N-37" style="edgeStyle=orthogonalEdgeStyle;rounded=0;orthogonalLoop=1;jettySize=auto;html=1;exitX=1;exitY=0.75;exitDx=0;exitDy=0;entryX=0;entryY=0.5;entryDx=0;entryDy=0;entryPerimeter=0;" parent="1" source="Gcy2Zyg5mzAC8_1Rug9N-14" target="Gcy2Zyg5mzAC8_1Rug9N-31" edge="1">
          <mxGeometry relative="1" as="geometry">
            <Array as="points">
              <mxPoint x="280" y="305" />
              <mxPoint x="280" y="483" />
            </Array>
          </mxGeometry>
        </mxCell>
        <mxCell id="MYxLFwQDuy4Y0nCW0piG-2" value="" style="endArrow=none;html=1;rounded=0;" edge="1" parent="1" source="Gcy2Zyg5mzAC8_1Rug9N-1" target="Gcy2Zyg5mzAC8_1Rug9N-31">
          <mxGeometry width="50" height="50" relative="1" as="geometry">
            <mxPoint x="490" y="390" as="sourcePoint" />
            <mxPoint x="540" y="340" as="targetPoint" />
            <Array as="points" />
          </mxGeometry>
        </mxCell>
        <mxCell id="Gcy2Zyg5mzAC8_1Rug9N-20" value="Data topic" style="text;html=1;align=center;verticalAlign=middle;resizable=0;points=[];autosize=1;strokeColor=none;fillColor=none;" parent="1" vertex="1">
          <mxGeometry x="348.75" y="219" width="80" height="30" as="geometry" />
        </mxCell>
      </root>
    </mxGraphModel>
  </diagram>
</mxfile>
